# xmcd CD database file
#
# Track frame offsets:
#	150
#	29330
#	50285
#	70940
#	97020
#	113777
#	128085
#	144385
#	164365
#	184990
#	220097
#	236330
#	270770
#
# Disc length: 3831 seconds
#
# Revision: 4
# Processed by: cddbd v1.5.2PL0 Copyright (c) Steve Scherf et al.
# Submitted via: CDex 1.72
#
DISCID=b00ef50d
DTITLE=Del Junco, Carlos [CDN-98-Big Boy-blues) - Big Boy
DYEAR=1998
DGENRE=Blues
TTITLE0=Heaven's Where You'll Dwell
TTITLE1=Yul Brynner
TTITLE2=I Wish I Could Shimmy Like My Sister Kate
TTITLE3=Heddon Tadpolly Spook
TTITLE4=Junko Partner
TTITLE5=Big Boy
TTITLE6=Mess Around
TTITLE7=Funny Thing
TTITLE8=Lonely Buzz
TTITLE9=Jitterbug Waltz
TTITLE10=Another Man Done Gone, On Down the Track
TTITLE11=River II
TTITLE12=Marjorie
EXTD=YEAR: 1998
EXTT0=
EXTT1=
EXTT2=
EXTT3=
EXTT4=
EXTT5=
EXTT6=
EXTT7=
EXTT8=
EXTT9=
EXTT10=
EXTT11=
EXTT12=
PLAYORDER=
